<mxfile host="app.diagrams.net" modified="2022-09-22T09:52:37.570Z" agent="5.0 (Macintosh; Intel Mac OS X 10_15_7) AppleWebKit/537.36 (KHTML, like Gecko) Chrome/105.0.0.0 Safari/537.36" etag="nTvHIBzpAD4Lyi9QYaCW" version="20.3.3" type="github">
  <diagram id="nkyV5b_32JDhwVOgFDkR" name="Page-1">
    <mxGraphModel dx="1426" dy="794" grid="1" gridSize="10" guides="1" tooltips="1" connect="1" arrows="1" fold="1" page="1" pageScale="1" pageWidth="850" pageHeight="1100" math="0" shadow="0">
      <root>
        <mxCell id="0" />
        <mxCell id="1" parent="0" />
        <mxCell id="hLyphu_U-6qX2UxzlJqh-1" value="" style="shape=umlActor;verticalLabelPosition=bottom;verticalAlign=top;html=1;outlineConnect=0;strokeWidth=1;" vertex="1" parent="1">
          <mxGeometry x="110" y="350" width="30" height="60" as="geometry" />
        </mxCell>
        <mxCell id="hLyphu_U-6qX2UxzlJqh-4" value="" style="shape=umlActor;verticalLabelPosition=bottom;verticalAlign=top;html=1;outlineConnect=0;strokeWidth=1;" vertex="1" parent="1">
          <mxGeometry x="150" y="350" width="30" height="60" as="geometry" />
        </mxCell>
        <mxCell id="hLyphu_U-6qX2UxzlJqh-5" value="" style="shape=umlActor;verticalLabelPosition=bottom;verticalAlign=top;html=1;outlineConnect=0;strokeWidth=1;" vertex="1" parent="1">
          <mxGeometry x="190" y="350" width="30" height="60" as="geometry" />
        </mxCell>
        <mxCell id="hLyphu_U-6qX2UxzlJqh-6" value="" style="shape=umlActor;verticalLabelPosition=bottom;verticalAlign=top;html=1;outlineConnect=0;strokeWidth=1;" vertex="1" parent="1">
          <mxGeometry x="110" y="420" width="30" height="60" as="geometry" />
        </mxCell>
        <mxCell id="hLyphu_U-6qX2UxzlJqh-7" value="&lt;font style=&quot;font-size: 18px;&quot;&gt;Validators&lt;/font&gt;" style="shape=umlActor;verticalLabelPosition=bottom;verticalAlign=top;html=1;outlineConnect=0;strokeWidth=1;" vertex="1" parent="1">
          <mxGeometry x="150" y="420" width="30" height="60" as="geometry" />
        </mxCell>
        <mxCell id="hLyphu_U-6qX2UxzlJqh-8" value="" style="shape=umlActor;verticalLabelPosition=bottom;verticalAlign=top;html=1;outlineConnect=0;strokeWidth=1;" vertex="1" parent="1">
          <mxGeometry x="190" y="420" width="30" height="60" as="geometry" />
        </mxCell>
        <mxCell id="hLyphu_U-6qX2UxzlJqh-9" value="Consensus Layer" style="rounded=1;whiteSpace=wrap;html=1;strokeWidth=1;fontSize=18;fillColor=#dae8fc;strokeColor=#6c8ebf;" vertex="1" parent="1">
          <mxGeometry x="400" y="260" width="320" height="80" as="geometry" />
        </mxCell>
        <mxCell id="hLyphu_U-6qX2UxzlJqh-10" value="Execution Layer" style="rounded=1;whiteSpace=wrap;html=1;strokeWidth=1;fontSize=18;fillColor=#f8cecc;strokeColor=#b85450;" vertex="1" parent="1">
          <mxGeometry x="400" y="490" width="320" height="80" as="geometry" />
        </mxCell>
        <mxCell id="hLyphu_U-6qX2UxzlJqh-11" value="&lt;font style=&quot;font-size: 14px;&quot;&gt;Proposal&lt;/font&gt;" style="rounded=0;whiteSpace=wrap;html=1;strokeWidth=1;fontSize=18;" vertex="1" parent="1">
          <mxGeometry x="830" y="220" width="130" height="50" as="geometry" />
        </mxCell>
        <mxCell id="hLyphu_U-6qX2UxzlJqh-13" value="&lt;span style=&quot;font-size: 14px;&quot;&gt;Attesting&lt;/span&gt;" style="rounded=0;whiteSpace=wrap;html=1;strokeWidth=1;fontSize=18;" vertex="1" parent="1">
          <mxGeometry x="830" y="310" width="130" height="50" as="geometry" />
        </mxCell>
        <mxCell id="hLyphu_U-6qX2UxzlJqh-14" value="&lt;span style=&quot;font-size: 14px;&quot;&gt;Transaction fee&lt;/span&gt;" style="rounded=0;whiteSpace=wrap;html=1;strokeWidth=1;fontSize=18;" vertex="1" parent="1">
          <mxGeometry x="830" y="505" width="130" height="50" as="geometry" />
        </mxCell>
        <mxCell id="hLyphu_U-6qX2UxzlJqh-15" value="" style="endArrow=classic;html=1;rounded=0;fontSize=14;strokeWidth=1.5;exitX=0;exitY=0.5;exitDx=0;exitDy=0;entryX=1;entryY=0.5;entryDx=0;entryDy=0;" edge="1" parent="1" source="hLyphu_U-6qX2UxzlJqh-11" target="hLyphu_U-6qX2UxzlJqh-9">
          <mxGeometry width="50" height="50" relative="1" as="geometry">
            <mxPoint x="400" y="420" as="sourcePoint" />
            <mxPoint x="450" y="370" as="targetPoint" />
          </mxGeometry>
        </mxCell>
        <mxCell id="hLyphu_U-6qX2UxzlJqh-16" value="" style="endArrow=classic;html=1;rounded=0;fontSize=14;strokeWidth=1.5;exitX=0;exitY=0.5;exitDx=0;exitDy=0;entryX=1;entryY=0.5;entryDx=0;entryDy=0;" edge="1" parent="1" source="hLyphu_U-6qX2UxzlJqh-13" target="hLyphu_U-6qX2UxzlJqh-9">
          <mxGeometry width="50" height="50" relative="1" as="geometry">
            <mxPoint x="840" y="255" as="sourcePoint" />
            <mxPoint x="730" y="310" as="targetPoint" />
          </mxGeometry>
        </mxCell>
        <mxCell id="hLyphu_U-6qX2UxzlJqh-17" value="" style="endArrow=classic;html=1;rounded=0;fontSize=14;strokeWidth=1.5;exitX=0;exitY=0.5;exitDx=0;exitDy=0;entryX=1;entryY=0.5;entryDx=0;entryDy=0;" edge="1" parent="1" source="hLyphu_U-6qX2UxzlJqh-14" target="hLyphu_U-6qX2UxzlJqh-10">
          <mxGeometry width="50" height="50" relative="1" as="geometry">
            <mxPoint x="840" y="345" as="sourcePoint" />
            <mxPoint x="730" y="310" as="targetPoint" />
          </mxGeometry>
        </mxCell>
        <mxCell id="hLyphu_U-6qX2UxzlJqh-18" value="" style="endArrow=classic;html=1;rounded=0;strokeWidth=1.5;fontSize=14;exitX=0;exitY=0.5;exitDx=0;exitDy=0;" edge="1" parent="1" source="hLyphu_U-6qX2UxzlJqh-9">
          <mxGeometry width="50" height="50" relative="1" as="geometry">
            <mxPoint x="400" y="420" as="sourcePoint" />
            <mxPoint x="220" y="420" as="targetPoint" />
          </mxGeometry>
        </mxCell>
        <mxCell id="hLyphu_U-6qX2UxzlJqh-19" value="" style="endArrow=classic;html=1;rounded=0;strokeWidth=1.5;fontSize=14;exitX=0;exitY=0.5;exitDx=0;exitDy=0;" edge="1" parent="1" source="hLyphu_U-6qX2UxzlJqh-10">
          <mxGeometry width="50" height="50" relative="1" as="geometry">
            <mxPoint x="410" y="310" as="sourcePoint" />
            <mxPoint x="220" y="420" as="targetPoint" />
          </mxGeometry>
        </mxCell>
        <mxCell id="hLyphu_U-6qX2UxzlJqh-20" value="&lt;div&gt;Get rewards for proposal and attesting&lt;/div&gt;&lt;div&gt;Withdrawals available after EIP-4895&lt;/div&gt;" style="text;html=1;strokeColor=none;fillColor=none;align=center;verticalAlign=middle;whiteSpace=wrap;rounded=0;strokeWidth=1;fontSize=14;" vertex="1" parent="1">
          <mxGeometry x="420" y="210" width="270" height="40" as="geometry" />
        </mxCell>
        <mxCell id="hLyphu_U-6qX2UxzlJqh-21" value="&lt;div&gt;Get rewarded from transaction fees&lt;/div&gt;&lt;div&gt;Need to set a receipt address&lt;/div&gt;" style="text;html=1;strokeColor=none;fillColor=none;align=center;verticalAlign=middle;whiteSpace=wrap;rounded=0;strokeWidth=1;fontSize=14;" vertex="1" parent="1">
          <mxGeometry x="410" y="560" width="290" height="70" as="geometry" />
        </mxCell>
        <mxCell id="hLyphu_U-6qX2UxzlJqh-22" value="Reward on Beacon Chain" style="text;html=1;strokeColor=none;fillColor=none;align=center;verticalAlign=middle;whiteSpace=wrap;rounded=0;strokeWidth=1;fontSize=14;" vertex="1" parent="1">
          <mxGeometry x="450" y="190" width="190" height="10" as="geometry" />
        </mxCell>
        <mxCell id="hLyphu_U-6qX2UxzlJqh-23" value="Reward on Execution Chain" style="text;html=1;strokeColor=none;fillColor=none;align=center;verticalAlign=middle;whiteSpace=wrap;rounded=0;strokeWidth=1;fontSize=14;" vertex="1" parent="1">
          <mxGeometry x="460" y="630" width="190" height="10" as="geometry" />
        </mxCell>
        <mxCell id="hLyphu_U-6qX2UxzlJqh-25" value="" style="endArrow=classic;startArrow=classic;html=1;rounded=0;strokeWidth=1.5;fontSize=14;strokeColor=#FF6666;entryX=0.5;entryY=1;entryDx=0;entryDy=0;exitX=0.5;exitY=0;exitDx=0;exitDy=0;" edge="1" parent="1" source="hLyphu_U-6qX2UxzlJqh-10" target="hLyphu_U-6qX2UxzlJqh-9">
          <mxGeometry width="50" height="50" relative="1" as="geometry">
            <mxPoint x="400" y="480" as="sourcePoint" />
            <mxPoint x="450" y="430" as="targetPoint" />
          </mxGeometry>
        </mxCell>
        <mxCell id="hLyphu_U-6qX2UxzlJqh-26" value="Auth by JWT token" style="text;html=1;strokeColor=none;fillColor=none;align=center;verticalAlign=middle;whiteSpace=wrap;rounded=0;strokeWidth=1;fontSize=14;" vertex="1" parent="1">
          <mxGeometry x="460" y="410" width="90" height="30" as="geometry" />
        </mxCell>
        <mxCell id="hLyphu_U-6qX2UxzlJqh-27" value="Communicate through the Engine API" style="text;html=1;strokeColor=none;fillColor=none;align=center;verticalAlign=middle;whiteSpace=wrap;rounded=0;strokeWidth=1;fontSize=14;" vertex="1" parent="1">
          <mxGeometry x="560" y="415" width="120" height="20" as="geometry" />
        </mxCell>
      </root>
    </mxGraphModel>
  </diagram>
</mxfile>
